<svg width="11" height="11" viewBox="0 0 11 11" fill="none" xmlns="http://www.w3.org/2000/svg">
<path d="M10.0691 6.34495L8.63895 4.91093L7.27004 6.15759C6.86153 6.52963 6.23339 6.51446 5.84325 6.12325L4.57767 4.85423C4.43816 4.71432 4.21077 4.71946 4.07765 4.86564L0.941667 8.30957C0.813847 8.44994 0.596436 8.46012 0.456064 8.33229C0.315692 8.20447 0.305517 7.98707 0.433337 7.84668L3.56931 4.40277C3.96675 3.96631 4.6476 3.95075 5.06447 4.36875L6.33004 5.63778C6.46068 5.76876 6.67045 5.77378 6.80713 5.64931L8.15296 4.42363L6.89734 3.16461C6.79922 3.06623 6.76998 2.91845 6.82323 2.79012C6.8765 2.66178 7.00179 2.57812 7.14074 2.57812H10.3125C10.4037 2.57812 10.4911 2.61434 10.5556 2.67881C10.62 2.74328 10.6562 2.83071 10.6562 2.92188V6.1022C10.6562 6.24133 10.5724 6.36673 10.4438 6.41988C10.3153 6.47304 10.1674 6.44346 10.0691 6.34495Z" fill="#13B440"/>
</svg>
