<svg width="18" height="19" viewBox="0 0 18 19" fill="none" xmlns="http://www.w3.org/2000/svg">
<path d="M15.1874 1.83301H2.8124C1.60303 1.83301 0.618652 2.81738 0.618652 4.02676V5.32051C0.618652 6.52988 1.60303 7.51426 2.8124 7.51426H2.93896V14.4105C2.93896 15.9304 4.17534 17.1668 5.69521 17.1668H12.3046C13.8245 17.1668 15.0608 15.9304 15.0608 14.4105V7.51426H15.1874C16.3968 7.51426 17.3812 6.52988 17.3812 5.32051V4.02676C17.3812 2.81682 16.3968 1.83301 15.1874 1.83301ZM14.0483 12.8957C12.3552 13.1229 11.0137 14.4634 10.787 16.1543H7.2134C6.98671 14.4628 5.64515 13.1229 3.95203 12.8957V5.79695C3.95203 5.45607 4.22934 5.1782 4.57078 5.1782H13.4302C13.771 5.1782 14.0489 5.45607 14.0489 5.79695L14.0483 12.8957ZM3.95146 14.4105V13.9211C5.0849 14.1309 5.97759 15.0225 6.18628 16.1543H5.69465C4.7339 16.1548 3.95146 15.3724 3.95146 14.4105ZM12.3046 16.1548H11.813C12.0222 15.0231 12.9143 14.1315 14.0478 13.9217V14.4111C14.0483 15.3724 13.2659 16.1548 12.3046 16.1548ZM16.3687 5.32051C16.3687 5.97188 15.8393 6.50176 15.1874 6.50176H15.0608V5.79695C15.0608 4.89751 14.3285 4.1657 13.4296 4.1657H4.57021C3.67078 4.1657 2.93896 4.89751 2.93896 5.79695V6.50176H2.8124C2.16103 6.50176 1.63115 5.97188 1.63115 5.32051V4.02676C1.63115 3.37538 2.16046 2.84551 2.8124 2.84551H15.1874C15.8388 2.84551 16.3687 3.37538 16.3687 4.02676V5.32051Z" fill="#71717A"/>
<path d="M8.99987 7.40503C7.62343 7.40503 6.50293 8.52497 6.50293 9.9014C6.50293 11.2778 7.62343 12.3978 8.99987 12.3978C10.3763 12.3978 11.4968 11.2778 11.4968 9.9014C11.4968 8.52497 10.3763 7.40503 8.99987 7.40503ZM8.99987 11.3858C8.18143 11.3858 7.51543 10.7198 7.51543 9.9014C7.51543 9.08297 8.18143 8.41697 8.99987 8.41697C9.8183 8.41697 10.4843 9.08297 10.4843 9.9014C10.4843 10.7198 9.8183 11.3858 8.99987 11.3858Z" fill="#71717A"/>
</svg>
