<svg width="24" height="24" viewBox="0 0 24 24" fill="none" xmlns="http://www.w3.org/2000/svg">
<g clip-path="url(#clip0_201_475)">
<path d="M21.8895 5.25415C20.7258 5.25415 19.779 6.20089 19.779 7.3646V10.0526C19.5558 9.97376 19.3184 9.93274 19.0748 9.93274C18.511 9.93274 17.981 10.1523 17.5824 10.5509L12 16.1333L6.41761 10.5509C6.01898 10.1523 5.48897 9.93274 4.92525 9.93274C4.68159 9.93274 4.44417 9.97376 4.221 10.0526V7.3646C4.221 6.20089 3.27422 5.25415 2.1105 5.25415C0.946781 5.25415 0 6.20089 0 7.3646V14.6804L5.37328 20.7568V23.9999H18.6267V20.7568L24 14.6805V7.3646C24 6.20089 23.0532 5.25415 21.8895 5.25415ZM11.2969 22.5937H6.77953V20.2243L1.40625 14.1479V7.3646C1.40625 6.97629 1.72219 6.6604 2.1105 6.6604C2.49881 6.6604 2.81475 6.97629 2.81475 7.3646V12.0422V12.0432C2.81475 12.6069 3.03427 13.1369 3.43294 13.5356L6.27117 16.3738L7.26553 15.3795L4.4273 12.5412C4.29427 12.4082 4.221 12.2313 4.221 12.0432C4.221 11.8551 4.29427 11.6783 4.4273 11.5452C4.56028 11.4122 4.73714 11.339 4.92525 11.339C5.11336 11.339 5.29022 11.4123 5.42325 11.5452L11.2969 17.4189V22.5937ZM22.5938 14.1479L17.2205 20.2243V22.5937H12.7031V17.4189L18.5768 11.5452C18.7098 11.4122 18.8866 11.339 19.0748 11.339C19.2629 11.339 19.4398 11.4123 19.5728 11.5452C19.7058 11.6783 19.779 11.8551 19.779 12.0432C19.779 12.2313 19.7058 12.4082 19.5728 12.5412L16.7346 15.3795L17.7289 16.3738L20.5672 13.5356C20.9658 13.1369 21.1853 12.6069 21.1853 12.0432C21.1853 12.0429 21.1853 12.0425 21.1853 12.0422V7.3646C21.1853 6.97629 21.5013 6.6604 21.8896 6.6604C22.2779 6.6604 22.5938 6.97629 22.5938 7.3646V14.1479Z" fill="black"/>
<path d="M12 11.3438C14.6759 11.3438 16.8529 9.16678 16.8529 6.49092V4.85287C16.8529 2.17697 14.6759 0 12 0C9.32419 0 7.14722 2.17697 7.14722 4.85283V6.49088C7.14722 9.16678 9.32419 11.3438 12 11.3438ZM15.4466 4.85283V6.49088C15.4466 8.15044 14.2675 9.53958 12.7032 9.86512V1.47858C14.2676 1.80412 15.4466 3.19331 15.4466 4.85283ZM8.55347 4.85283C8.55347 3.19327 9.73256 1.80412 11.2969 1.47858V9.86517C9.73251 9.53963 8.55347 8.15044 8.55347 6.49092V4.85283Z" fill="black"/>
</g>
<defs>
<clipPath id="clip0_201_475">
<rect width="24" height="24" fill="white"/>
</clipPath>
</defs>
</svg>
