<svg width="18" height="19" viewBox="0 0 18 19" fill="none" xmlns="http://www.w3.org/2000/svg">
<path d="M16.3125 9.3477C16.0329 9.3477 15.8062 9.57439 15.8062 9.85395V13.6958C15.8062 14.3562 15.269 14.8939 14.6081 14.8939H3.39185C2.73091 14.8939 2.19373 14.3562 2.19373 13.6958V7.83514C2.19373 7.1742 2.73091 6.63701 3.39185 6.63701H9.28123C9.56079 6.63701 9.78748 6.41032 9.78748 6.13076C9.78748 5.8512 9.56079 5.62451 9.28123 5.62451H3.39185C2.17291 5.62451 1.18066 6.6162 1.18066 7.83514V13.6964C1.18066 14.9153 2.17291 15.907 3.39185 15.907H14.6081C15.827 15.907 16.8193 14.9153 16.8193 13.6964V9.85451C16.8187 9.57439 16.592 9.3477 16.3125 9.3477Z" fill="#71717A"/>
<path d="M6.64771 10.7657C6.64771 12.0628 7.70296 13.1175 9.00008 13.1175C10.2972 13.1175 11.3525 12.0628 11.3525 10.7657C11.3525 9.46858 10.2972 8.41333 9.00008 8.41333C7.70296 8.41333 6.64771 9.46858 6.64771 10.7657ZM10.3394 10.7657C10.3394 11.5043 9.73921 12.105 9.00008 12.105C8.26096 12.105 7.66077 11.5043 7.66077 10.7657C7.66077 10.0271 8.26096 9.42639 9.00008 9.42639C9.73921 9.42639 10.3394 10.0271 10.3394 10.7657Z" fill="#71717A"/>
<path d="M4.64062 11.3979C4.99012 11.3979 5.27344 11.1146 5.27344 10.7651C5.27344 10.4156 4.99012 10.1323 4.64062 10.1323C4.29113 10.1323 4.00781 10.4156 4.00781 10.7651C4.00781 11.1146 4.29113 11.3979 4.64062 11.3979Z" fill="#71717A"/>
<path d="M13.3594 11.3979C13.7089 11.3979 13.9922 11.1146 13.9922 10.7651C13.9922 10.4156 13.7089 10.1323 13.3594 10.1323C13.0099 10.1323 12.7266 10.4156 12.7266 10.7651C12.7266 11.1146 13.0099 11.3979 13.3594 11.3979Z" fill="#71717A"/>
<path d="M13.7812 9.16875C15.4563 9.16875 16.8187 7.80637 16.8187 6.13125C16.8187 4.45612 15.4557 3.09375 13.7812 3.09375C12.1066 3.09375 10.7437 4.45612 10.7437 6.13125C10.7437 7.80637 12.106 9.16875 13.7812 9.16875ZM13.7812 4.10625C14.8977 4.10625 15.8062 5.01469 15.8062 6.13125C15.8062 7.24781 14.8983 8.15625 13.7812 8.15625C12.664 8.15625 11.7562 7.24781 11.7562 6.13125C11.7562 5.01469 12.6646 4.10625 13.7812 4.10625Z" fill="#71717A"/>
<path d="M13.423 7.52353C13.522 7.62253 13.6513 7.67203 13.7813 7.67203C13.9112 7.67203 14.0406 7.62253 14.1396 7.52353L14.9676 6.69553C15.1656 6.49809 15.1656 6.17746 14.9676 5.98003C14.7803 5.79328 14.4866 5.78934 14.2875 5.95584V5.09634C14.2875 4.81678 14.0608 4.59009 13.7813 4.59009C13.5017 4.59009 13.275 4.81678 13.275 5.09634V5.95584C13.0759 5.78934 12.7823 5.79328 12.5955 5.98003C12.3975 6.17746 12.3975 6.49809 12.5955 6.69553L13.423 7.52353Z" fill="#71717A"/>
</svg>
