<svg width="24" height="24" viewBox="0 0 24 24" fill="none" xmlns="http://www.w3.org/2000/svg">
<path fill-rule="evenodd" clip-rule="evenodd" d="M22.5 10.5C22.5 9.25725 21.4928 8.25 20.25 8.25H14.25C13.0073 8.25 12 9.25725 12 10.5V20.25C12 21.4928 13.0073 22.5 14.25 22.5H20.25C21.4928 22.5 22.5 21.4928 22.5 20.25V10.5ZM21 10.5V20.25C21 20.664 20.664 21 20.25 21H14.25C13.836 21 13.5 20.664 13.5 20.25C13.5 17.7968 13.5 12.9532 13.5 10.5C13.5 10.086 13.836 9.75 14.25 9.75H20.25C20.664 9.75 21 10.086 21 10.5Z" fill="black"/>
<path fill-rule="evenodd" clip-rule="evenodd" d="M15.75 19.5H18.75C19.164 19.5 19.5 19.164 19.5 18.75C19.5 18.336 19.164 18 18.75 18H15.75C15.336 18 15 18.336 15 18.75C15 19.164 15.336 19.5 15.75 19.5Z" fill="black"/>
<path fill-rule="evenodd" clip-rule="evenodd" d="M13.5 12C13.5 11.586 13.164 11.25 12.75 11.25H2.25C2.25 11.25 1.5 12.705 1.5 12.0015C1.5 14.0715 3.1785 15.75 5.2485 15.75H12.75C13.164 15.75 13.5 15.414 13.5 15V12ZM3.1275 12.75H12V14.25H5.2485C4.269 14.25 3.43575 13.6237 3.1275 12.75Z" fill="black"/>
<path fill-rule="evenodd" clip-rule="evenodd" d="M5.25 12V3.75C5.25 3.55125 5.32875 3.36 5.46975 3.21975C5.61 3.07875 5.80125 3 6 3H15.75C15.9487 3 16.14 3.07875 16.2803 3.21975C16.4213 3.36 16.5 3.55125 16.5 3.75V9C16.5 9.414 16.836 9.75 17.25 9.75C17.664 9.75 18 9.414 18 9C18 9 18 5.739 18 3.75C18 3.153 17.763 2.58075 17.3408 2.15925C16.9193 1.737 16.347 1.5 15.75 1.5C13.2968 1.5 8.45325 1.5 6 1.5C5.403 1.5 4.83075 1.737 4.40925 2.15925C3.987 2.58075 3.75 3.153 3.75 3.75V12C3.75 12.414 4.086 12.75 4.5 12.75C4.914 12.75 5.25 12.414 5.25 12Z" fill="black"/>
<path d="M2.25 12.75C2.66421 12.75 3 12.4142 3 12C3 11.5858 2.66421 11.25 2.25 11.25C1.83579 11.25 1.5 11.5858 1.5 12C1.5 12.4142 1.83579 12.75 2.25 12.75Z" fill="black"/>
</svg>
