<svg width="18" height="18" viewBox="0 0 18 18" fill="none" xmlns="http://www.w3.org/2000/svg">
<g clip-path="url(#clip0_201_969)">
<path d="M6.15302 0.618652H2.81289C1.60352 0.618652 0.619141 1.60303 0.619141 2.8124V6.15253C0.619141 7.3619 1.60352 8.34628 2.81289 8.34628H6.15302C7.36239 8.34628 8.34677 7.3619 8.34677 6.15253V2.8124C8.3462 1.60303 7.36239 0.618652 6.15302 0.618652ZM7.33427 6.15253C7.33427 6.8039 6.80439 7.33378 6.15302 7.33378H2.81289C2.16152 7.33378 1.63164 6.80446 1.63164 6.15253V2.8124C1.63164 2.16103 2.16152 1.63115 2.81289 1.63115H6.15302C6.80439 1.63115 7.33427 2.16046 7.33427 2.8124V6.15253Z" fill="#71717A"/>
<path d="M6.15302 9.65356H2.81289C1.60352 9.65356 0.619141 10.6379 0.619141 11.8473V15.1874C0.619141 16.3968 1.60352 17.3812 2.81289 17.3812H6.15302C7.36239 17.3812 8.34677 16.3968 8.34677 15.1874V11.8473C8.3462 10.6379 7.36239 9.65356 6.15302 9.65356ZM7.33427 15.1874C7.33427 15.8388 6.80439 16.3687 6.15302 16.3687H2.81289C2.16152 16.3687 1.63164 15.8394 1.63164 15.1874V11.8473C1.63164 11.1959 2.16152 10.6661 2.81289 10.6661H6.15302C6.80439 10.6661 7.33427 11.1954 7.33427 11.8473V15.1874Z" fill="#71717A"/>
<path d="M15.1882 0.618652H11.848C10.6387 0.618652 9.6543 1.60303 9.6543 2.8124V6.15253C9.6543 7.3619 10.6387 8.34628 11.848 8.34628H15.1882C16.3975 8.34628 17.3819 7.3619 17.3819 6.15253V2.8124C17.3819 1.60303 16.3975 0.618652 15.1882 0.618652ZM16.3694 6.15253C16.3694 6.8039 15.8401 7.33378 15.1882 7.33378H11.848C11.1967 7.33378 10.6668 6.80446 10.6668 6.15253V2.8124C10.6668 2.16103 11.1961 1.63115 11.848 1.63115H15.1882C15.8395 1.63115 16.3694 2.16046 16.3694 2.8124V6.15253Z" fill="#71717A"/>
<path d="M15.1882 9.65356H11.848C10.6387 9.65356 9.6543 10.6379 9.6543 11.8473V15.1874C9.6543 16.3968 10.6387 17.3812 11.848 17.3812H15.1882C16.3975 17.3812 17.3819 16.3968 17.3819 15.1874V11.8473C17.3819 10.6379 16.3975 9.65356 15.1882 9.65356ZM16.3694 15.1874C16.3694 15.8388 15.8401 16.3687 15.1882 16.3687H11.848C11.1967 16.3687 10.6668 15.8394 10.6668 15.1874V11.8473C10.6668 11.1959 11.1961 10.6661 11.848 10.6661H15.1882C15.8395 10.6661 16.3694 11.1954 16.3694 11.8473V15.1874Z" fill="#71717A"/>
</g>
<defs>
<clipPath id="clip0_201_969">
<rect width="18" height="18" fill="white"/>
</clipPath>
</defs>
</svg>
