<svg width="18" height="19" viewBox="0 0 18 19" fill="none" xmlns="http://www.w3.org/2000/svg">
<path d="M13.8931 10.2031H8.29678V4.60684C8.29678 4.32727 8.07009 4.10059 7.79053 4.10059C4.14609 4.10002 1.18115 7.06552 1.18115 10.7094C1.18115 12.1635 1.64746 13.5438 2.52778 14.6998C3.78271 16.3642 5.7014 17.3188 7.79053 17.3188C11.435 17.3188 14.3999 14.3538 14.3999 10.7094C14.3999 10.4298 14.1727 10.2031 13.8931 10.2031ZM7.79053 16.3063C6.02146 16.3063 4.39809 15.4985 3.3344 14.0889C2.58853 13.1085 2.19365 11.9401 2.19365 10.7094C2.19365 7.79396 4.43409 5.39209 7.28372 5.13559V10.7094C7.28372 10.989 7.5104 11.2156 7.78997 11.2156H13.3638C13.1078 14.0653 10.7054 16.3063 7.79053 16.3063Z" fill="#71717A"/>
<path d="M9.63149 1.68115C9.35193 1.68115 9.12524 1.90784 9.12524 2.1874V8.86822C9.12524 9.14778 9.35193 9.37446 9.63149 9.37446H16.3123C16.5919 9.37446 16.8186 9.14778 16.8186 8.86822C16.8186 4.9054 13.5943 1.68115 9.63149 1.68115ZM10.1377 8.36197V2.71446C13.1392 2.95915 15.5406 5.36047 15.7852 8.36197H10.1377Z" fill="#71717A"/>
</svg>
