<svg width="18" height="19" viewBox="0 0 18 19" fill="none" xmlns="http://www.w3.org/2000/svg">
<path d="M3.11782 5.30156H4.00038C4.27995 5.30156 4.50663 5.07487 4.50663 4.79531C4.50663 4.51575 4.27995 4.28906 4.00038 4.28906H3.11782C2.83826 4.28906 2.61157 4.51575 2.61157 4.79531C2.61157 5.07487 2.83826 5.30156 3.11782 5.30156Z" fill="#71717A"/>
<path d="M4.40886 6.78034L3.78449 7.40471C3.58649 7.60215 3.58649 7.92277 3.78449 8.12021C3.88349 8.21921 4.01286 8.26871 4.14224 8.26871C4.27161 8.26871 4.40099 8.21921 4.49999 8.12021L5.12436 7.49584C5.32236 7.2984 5.32236 6.97777 5.12436 6.78034C4.92692 6.58234 4.60686 6.58234 4.40886 6.78034Z" fill="#71717A"/>
<path d="M4.40886 2.81015C4.50786 2.90915 4.63724 2.95865 4.76661 2.95865C4.89599 2.95865 5.02536 2.90915 5.12436 2.81015C5.32236 2.61271 5.32236 2.29209 5.12436 2.09465L4.49999 1.47028C4.30199 1.27228 3.98192 1.27228 3.78449 1.47028C3.58649 1.66771 3.58649 1.98834 3.78449 2.18578L4.40886 2.81015Z" fill="#71717A"/>
<path d="M13.4927 4.79531C13.4927 5.07487 13.7194 5.30156 13.9989 5.30156H14.8815C15.1611 5.30156 15.3877 5.07487 15.3877 4.79531C15.3877 4.51575 15.1611 4.28906 14.8815 4.28906H13.9989C13.7194 4.28906 13.4927 4.51575 13.4927 4.79531Z" fill="#71717A"/>
<path d="M13.4994 8.12021C13.5984 8.21921 13.7278 8.26871 13.8572 8.26871C13.9866 8.26871 14.1159 8.21921 14.2149 8.12021C14.4129 7.92277 14.4129 7.60215 14.2149 7.40471L13.5906 6.78034C13.3926 6.58234 13.0725 6.58234 12.8751 6.78034C12.6771 6.97777 12.6771 7.2984 12.8751 7.49584L13.4994 8.12021Z" fill="#71717A"/>
<path d="M13.2328 2.95865C13.3622 2.95865 13.4916 2.90915 13.5906 2.81015L14.2149 2.18578C14.4129 1.98834 14.4129 1.66771 14.2149 1.47028C14.0169 1.27228 13.6969 1.27228 13.4994 1.47028L12.8751 2.09465C12.6771 2.29209 12.6771 2.61271 12.8751 2.81015C12.9741 2.90915 13.1034 2.95865 13.2328 2.95865Z" fill="#71717A"/>
<path d="M6.62001 5.92865L6.37645 7.34671C6.31626 7.69828 6.45857 8.04703 6.74713 8.25684C6.91026 8.37553 7.10095 8.43515 7.29276 8.43515C7.4407 8.43515 7.5892 8.39971 7.72645 8.32771L8.99995 7.65834L10.2734 8.32771C10.589 8.49365 10.9648 8.46721 11.2533 8.2574C11.5419 8.04759 11.6842 7.6994 11.624 7.34728L11.3804 5.92921L12.4109 4.92515C12.6663 4.67596 12.7563 4.31034 12.6461 3.97115C12.5358 3.63196 12.2478 3.38953 11.8951 3.33834L10.4714 3.13134L9.8347 1.84096C9.67607 1.52034 9.35657 1.32178 8.99995 1.32178C8.64332 1.32178 8.32382 1.52034 8.16576 1.8404L7.52901 3.13078L6.10532 3.33778C5.75207 3.38896 5.46407 3.6314 5.35438 3.97059C5.2447 4.30978 5.33413 4.6754 5.58951 4.92459L6.62001 5.92865ZM7.71745 4.1264C8.02063 4.08253 8.2822 3.89184 8.41776 3.61734L8.99995 2.43778L9.58213 3.6179C9.7177 3.8924 9.97982 4.08309 10.2824 4.12696L11.5841 4.31596L10.6424 5.23397C10.4231 5.44772 10.3235 5.75597 10.3747 6.05747L10.5974 7.35403L9.43363 6.74203C9.29807 6.67059 9.14901 6.63515 8.99995 6.63515C8.85088 6.63515 8.70238 6.67059 8.56682 6.74203L7.40245 7.35403L7.6252 6.05747C7.67695 5.7554 7.57682 5.44772 7.35745 5.23397L6.41526 4.31596L7.71745 4.1264Z" fill="#71717A"/>
<path d="M16.8749 12.9223H11.8574V10.9119H12.173C12.4525 10.9119 12.6792 10.6852 12.6792 10.4057C12.6792 10.1261 12.4525 9.89941 12.173 9.89941H5.82684C5.54728 9.89941 5.32059 10.1261 5.32059 10.4057C5.32059 10.6852 5.54728 10.9119 5.82684 10.9119H6.1424V11.9149H1.1249C0.84534 11.9149 0.618652 12.1415 0.618652 12.4211C0.618652 12.7007 0.84534 12.9274 1.1249 12.9274H1.44103V16.6089C1.44103 17.1984 1.92028 17.6777 2.50978 17.6777H6.64921H11.3512H15.4906C16.0801 17.6777 16.5593 17.1984 16.5593 16.6089V13.9348H16.8749C17.1545 13.9348 17.3812 13.7081 17.3812 13.4285C17.3812 13.149 17.1545 12.9223 16.8749 12.9223ZM2.45296 16.6095V12.9279H6.1424V16.6663H2.50921C2.47828 16.6657 2.45296 16.6404 2.45296 16.6095ZM7.1549 12.4211V10.9119H10.8449V13.4285V16.6652H7.1549V12.4211ZM15.5468 16.6095C15.5468 16.6404 15.5215 16.6657 15.4906 16.6657H11.8574V13.9354H15.5468V16.6095Z" fill="#71717A"/>
</svg>
