<svg width="18" height="19" viewBox="0 0 18 19" fill="none" xmlns="http://www.w3.org/2000/svg">
<path d="M16.2598 3.42659L14.4935 1.6609C14.1448 1.31103 13.6796 1.11865 13.1851 1.11865H5.49576C4.43826 1.11865 3.57764 1.97928 3.57764 3.03678V9.2749C3.57764 9.55447 3.80432 9.78115 4.08389 9.78115C4.36345 9.78115 4.59014 9.55447 4.59014 9.2749V3.03678C4.59014 2.53728 4.99626 2.13115 5.49576 2.13115H11.9938V4.24953C11.9938 5.17822 12.7492 5.93421 13.6779 5.93421H15.7895V14.5343C15.7895 15.0338 15.3828 15.4393 14.8839 15.4393H9.57389C9.29432 15.4393 9.06764 15.666 9.06764 15.9456C9.06764 16.2252 9.29432 16.4518 9.57389 16.4518H14.8839C15.9414 16.4518 16.802 15.5912 16.802 14.5337V4.73553C16.802 4.24053 16.6034 3.7624 16.2598 3.42659ZM13.6779 4.92115C13.3078 4.92115 13.0063 4.62021 13.0063 4.24953V2.13115H13.1851C13.409 2.13115 13.6194 2.21778 13.778 2.37696L15.5482 4.14659C15.704 4.29903 15.7901 4.50828 15.7901 4.73553V4.92115H13.6779Z" fill="#71717A"/>
<path d="M13.4168 9.79863C13.6964 9.79863 13.9231 9.57195 13.9231 9.29238C13.9231 9.01282 13.6964 8.78613 13.4168 8.78613H6.96157C6.68201 8.78613 6.45532 9.01282 6.45532 9.29238C6.45532 9.57195 6.68201 9.79863 6.96157 9.79863H13.4168Z" fill="#71717A"/>
<path d="M11.1207 11.57C11.1207 11.2904 10.894 11.0637 10.6144 11.0637H9.0563C8.77674 11.0637 8.55005 11.2904 8.55005 11.57C8.55005 11.8495 8.77674 12.0762 9.0563 12.0762H10.6144C10.894 12.0762 11.1207 11.8495 11.1207 11.57Z" fill="#71717A"/>
<path d="M4.7943 10.6885C2.81149 10.6885 1.19824 12.3017 1.19824 14.2851C1.19824 16.2685 2.81149 17.8812 4.7943 17.8812C6.77712 17.8812 8.39037 16.2679 8.39037 14.2845C8.39037 12.3012 6.77712 10.6885 4.7943 10.6885ZM4.7943 16.8687C3.36949 16.8687 2.21074 15.7094 2.21074 14.2851C2.21074 12.8609 3.37005 11.7015 4.7943 11.7015C6.21855 11.7015 7.37787 12.8609 7.37787 14.2851C7.37787 15.7094 6.21912 16.8687 4.7943 16.8687Z" fill="#71717A"/>
<path d="M5.30059 14.0754V13.15C5.30059 12.8705 5.0739 12.6438 4.79434 12.6438C4.51477 12.6438 4.28809 12.8705 4.28809 13.15V14.2852C4.28809 14.419 4.34152 14.5484 4.43659 14.6435L5.12565 15.3325C5.22465 15.4315 5.35402 15.481 5.4834 15.481C5.61277 15.481 5.74215 15.4315 5.84115 15.3325C6.03915 15.1345 6.03915 14.8139 5.84115 14.6165L5.30059 14.0754Z" fill="#71717A"/>
</svg>
