<svg width="18" height="19" viewBox="0 0 18 19" fill="#71717A" xmlns="http://www.w3.org/2000/svg">
<path fill-rule="evenodd" clip-rule="evenodd" d="M0.904545 11.3C0.78547 11.3002 0.667524 11.2769 0.557501 11.2314C0.447477 11.1858 0.347551 11.119 0.263478 11.0347C0.179404 10.9503 0.112845 10.8502 0.0676333 10.74C0.0224217 10.6299 -0.000548722 10.5119 4.51141e-05 10.3928V8.6072C-0.00114618 8.48834 0.0212666 8.37042 0.0659845 8.26029C0.110702 8.15016 0.176836 8.04999 0.260551 7.96561C0.344267 7.88122 0.443899 7.81429 0.553673 7.7687C0.663447 7.7231 0.781179 7.69975 0.900045 7.7H2.02684C2.19346 7.0487 2.45196 6.42443 2.79454 5.846L1.96744 5.0135C1.64704 4.6562 1.65424 4.1135 1.99444 3.7724L3.27244 2.4944C3.35646 2.411 3.4561 2.34499 3.56567 2.30016C3.67524 2.25533 3.79257 2.23255 3.91095 2.23314C4.02933 2.23372 4.14643 2.25766 4.25555 2.30357C4.36467 2.34948 4.46366 2.41647 4.54684 2.5007L5.34694 3.2945C5.92563 2.95328 6.54944 2.69515 7.20004 2.5277V1.4C7.20004 0.9374 7.61404 0.5 8.10004 0.5H9.90004C10.4013 0.5 10.8 0.896 10.8 1.4V2.5277C11.4509 2.69507 12.0751 2.9532 12.654 3.2945L13.4532 2.5007C13.5365 2.41653 13.6355 2.34961 13.7447 2.30378C13.8538 2.25794 13.9709 2.23409 14.0893 2.23359C14.2077 2.23309 14.325 2.25594 14.4346 2.30085C14.5441 2.34576 14.6437 2.41184 14.7276 2.4953L16.0056 3.7733C16.1682 3.93706 16.2615 4.15705 16.2664 4.38773C16.2712 4.61841 16.1872 4.84213 16.0317 5.0126C16.0317 5.0126 15.6717 5.378 15.2055 5.846C15.5481 6.42443 15.8066 7.0487 15.9732 7.7H17.1C17.6013 7.7 18 8.1023 18 8.6072V10.3928C18.0012 10.5117 17.9788 10.6296 17.9341 10.7397C17.8894 10.8498 17.8232 10.95 17.7395 11.0344C17.6558 11.1188 17.5562 11.1857 17.4464 11.2313C17.3366 11.2769 17.2189 11.3002 17.1 11.3H15.9732C15.8066 11.9513 15.5481 12.5756 15.2055 13.154L15.9993 13.9532C16.0835 14.0364 16.1504 14.1355 16.1963 14.2446C16.2421 14.3538 16.2659 14.4709 16.2664 14.5893C16.267 14.7077 16.2441 14.825 16.1992 14.9345C16.1543 15.044 16.0882 15.1436 16.0047 15.2276L14.7267 16.5056C14.6427 16.5889 14.5431 16.6548 14.4337 16.6995C14.3242 16.7443 14.207 16.767 14.0887 16.7664C13.9704 16.7658 13.8534 16.7419 13.7444 16.6961C13.6353 16.6503 13.5364 16.5834 13.4532 16.4993L12.6531 15.7055C12.0744 16.0467 11.4506 16.3048 10.8 16.4723V17.5955C10.8 18.0995 10.395 18.5 9.89284 18.5H8.10724C7.9882 18.5005 7.87024 18.4774 7.76014 18.4322C7.65003 18.3869 7.54995 18.3203 7.46565 18.2363C7.38135 18.1522 7.31449 18.0524 7.26891 17.9424C7.22333 17.8324 7.19992 17.7145 7.20004 17.5955V16.4723C6.54913 16.3049 5.92501 16.0468 5.34604 15.7055L4.54684 16.4993C4.4636 16.5835 4.36456 16.6504 4.25541 16.6962C4.14626 16.7421 4.02914 16.7659 3.91076 16.7664C3.79238 16.7669 3.67506 16.744 3.56553 16.6991C3.456 16.6542 3.3564 16.5882 3.27244 16.5047L1.99444 15.2267C1.91118 15.1427 1.84528 15.0431 1.80053 14.9336C1.75578 14.8241 1.73305 14.7069 1.73363 14.5886C1.73422 14.4704 1.75811 14.3534 1.80394 14.2443C1.84978 14.1353 1.91665 14.0364 2.00074 13.9532L2.79454 13.154C2.45196 12.5756 2.19346 11.9513 2.02684 11.3H0.904545ZM3.94474 5.7263L3.74044 6.0323C3.29527 6.70189 2.9847 7.45173 2.82604 8.24L2.75224 8.6H0.904545C0.901845 8.6 0.900045 9.1976 0.900045 10.3928C0.900045 10.3973 1.51744 10.4 2.75224 10.4L2.82604 10.76C2.98804 11.5547 3.29404 12.299 3.74044 12.9677L3.94474 13.2737L2.63974 14.5877C2.63614 14.5904 3.05914 15.017 3.90874 15.8675L5.22634 14.5553L5.53234 14.7596C6.20301 15.2034 6.95286 15.5138 7.74094 15.674L8.10004 15.7487V17.5955C8.10004 17.5982 8.69764 17.6 9.89284 17.6C9.89734 17.6 9.90004 16.9826 9.90004 15.7487L10.2591 15.674C11.0472 15.5138 11.7971 15.2034 12.4677 14.7596L12.7737 14.5553L14.0877 15.8603C14.0904 15.8639 14.517 15.4409 15.3675 14.5913L14.0553 13.2737L14.2596 12.9677C14.7048 12.2981 15.0154 11.5483 15.174 10.76L15.2478 10.4H17.0955C17.0982 10.4 17.1 9.8024 17.1 8.6072C17.1 8.6027 16.4826 8.6 15.2478 8.6L15.174 8.24C15.0154 7.45173 14.7048 6.70189 14.2596 6.0323L14.0553 5.7263L15.2937 4.4807L15.3666 4.4069L14.0922 3.1325L12.7737 4.4447L12.4677 4.2404C11.7971 3.79663 11.0472 3.48618 10.2591 3.326L9.90004 3.2513V1.4C9.90004 1.3973 9.30244 1.3973 8.10724 1.4C8.10274 1.4 8.10004 2.0174 8.10004 3.2513L7.74094 3.326C6.95286 3.48618 6.20301 3.79663 5.53234 4.2404L5.22634 4.4447L3.91234 3.1397C3.90964 3.1361 3.48304 3.5591 2.63344 4.4069L3.94474 5.7263Z" fill="#71717A"/>
<path d="M9.00133 12.8061C8.56734 12.8061 8.13759 12.7206 7.73664 12.5546C7.33568 12.3885 6.97136 12.1451 6.66448 11.8382C6.35761 11.5313 6.11418 11.167 5.9481 10.766C5.78201 10.3651 5.69653 9.93532 5.69653 9.50133C5.69653 9.06734 5.78201 8.6376 5.9481 8.23664C6.11418 7.83568 6.35761 7.47136 6.66448 7.16449C6.97136 6.85761 7.33568 6.61418 7.73664 6.4481C8.13759 6.28201 8.56734 6.19653 9.00133 6.19653C9.87781 6.19653 10.7184 6.54472 11.3382 7.16449C11.9579 7.78426 12.3061 8.62484 12.3061 9.50133C12.3061 10.3778 11.9579 11.2184 11.3382 11.8382C10.7184 12.4579 9.87781 12.8061 9.00133 12.8061ZM9.00133 11.7045C9.58565 11.7045 10.146 11.4724 10.5592 11.0592C10.9724 10.646 11.2045 10.0857 11.2045 9.50133C11.2045 8.91701 10.9724 8.35662 10.5592 7.94344C10.146 7.53026 9.58565 7.29813 9.00133 7.29813C8.417 7.29813 7.85661 7.53026 7.44343 7.94344C7.03025 8.35662 6.79813 8.91701 6.79813 9.50133C6.79813 10.0857 7.03025 10.646 7.44343 11.0592C7.85661 11.4724 8.417 11.7045 9.00133 11.7045Z" fill="#71717A"/>
</svg>
