<svg width="18" height="19" viewBox="0 0 18 19" fill="none" xmlns="http://www.w3.org/2000/svg">
<path d="M11.2825 16.6695C8.49927 17.0115 5.62827 16.9092 2.92208 16.3821C2.65883 16.3326 2.46814 16.0969 2.46814 15.8224V15.1305C2.46814 12.7393 4.41327 10.7942 6.80502 10.7942H9.23445C10.2565 10.7942 11.2499 11.1553 12.0312 11.8118C12.245 11.9907 12.5633 11.9642 12.745 11.7499C12.9245 11.5356 12.8969 11.2167 12.6831 11.0361C12.0981 10.545 11.417 10.1901 10.6902 9.98534C11.9946 9.11797 12.8575 7.63578 12.8575 5.95559C12.8575 3.28878 10.688 1.11865 8.02058 1.11865C5.3532 1.11865 3.18308 3.28821 3.18308 5.95559C3.18308 7.63747 4.04708 9.12021 5.3532 9.98703C3.1077 10.6221 1.45508 12.6853 1.45508 15.1305V15.8224C1.45508 16.584 1.99283 17.2377 2.73139 17.3772C4.45152 17.7118 6.23127 17.8812 8.02002 17.8812C9.14952 17.8812 10.288 17.8114 11.3556 17.6787C11.6352 17.6787 11.8563 17.452 11.8563 17.1724C11.8557 16.872 11.5851 16.6386 11.2825 16.6695ZM4.19558 5.95503C4.19558 3.84621 5.9112 2.13115 8.02002 2.13115C10.1288 2.13115 11.8439 3.84621 11.8439 5.95503C11.8439 8.06384 10.1288 9.77946 8.02002 9.77946C5.9112 9.77946 4.19558 8.06384 4.19558 5.95503Z" fill="#71717A"/>
<path d="M15.1358 15.0636C14.8073 15.0636 14.5091 15.1811 14.2689 15.3701L12.8621 14.5365C12.8745 14.4606 12.8858 14.3846 12.8858 14.3053C12.8858 14.226 12.8751 14.1495 12.8621 14.0741L14.2684 13.2405C14.508 13.4295 14.8067 13.5476 15.1352 13.5476C15.912 13.5476 16.5443 12.9154 16.5443 12.1386C16.5443 11.3617 15.912 10.7295 15.1352 10.7295C14.3584 10.7295 13.7261 11.3617 13.7261 12.1386C13.7261 12.2179 13.7368 12.2949 13.7498 12.3709L12.3441 13.2039C12.1039 13.0144 11.8052 12.8962 11.4767 12.8962C10.6999 12.8962 10.0676 13.5285 10.0676 14.3053C10.0676 15.0821 10.6999 15.7144 11.4767 15.7144C11.8052 15.7144 12.1044 15.5962 12.3441 15.4067L13.7498 16.2397C13.7368 16.3157 13.7261 16.3927 13.7261 16.4726C13.7261 17.2494 14.3584 17.8817 15.1352 17.8817C15.912 17.8817 16.5443 17.2494 16.5443 16.4726C16.5443 15.6958 15.9126 15.0636 15.1358 15.0636ZM15.1358 11.742C15.3546 11.742 15.5318 11.9192 15.5318 12.138C15.5318 12.3568 15.3546 12.534 15.1358 12.534C14.9169 12.534 14.7398 12.3568 14.7398 12.138C14.7398 11.9192 14.9175 11.742 15.1358 11.742ZM11.4767 14.7013C11.2579 14.7013 11.0807 14.5241 11.0807 14.3053C11.0807 14.0865 11.2579 13.9093 11.4767 13.9093C11.6955 13.9093 11.8727 14.0865 11.8727 14.3053C11.8727 14.5241 11.6955 14.7013 11.4767 14.7013ZM15.1358 16.8686C14.9169 16.8686 14.7398 16.6914 14.7398 16.4726C14.7398 16.2538 14.9169 16.0766 15.1358 16.0766C15.3546 16.0766 15.5318 16.2538 15.5318 16.4726C15.5318 16.6914 15.3546 16.8686 15.1358 16.8686Z" fill="#71717A"/>
</svg>
