<svg width="15" height="15" viewBox="0 0 15 15" fill="none" xmlns="http://www.w3.org/2000/svg">
<path d="M13.7516 1.25028V4.82171H14.6445V0.357422H10.1802V1.25028H13.7516Z" fill="#71717A"/>
<path d="M10.05 5.58421L14.5142 1.11992L13.8821 0.487779L9.41781 4.95206L10.05 5.58421ZM1.25174 1.25028V4.82171H0.358887V0.357422H4.82317V1.25028H1.25174Z" fill="#71717A"/>
<path d="M4.95305 5.58398L0.48877 1.11969L1.12091 0.487549L5.5852 4.95183L4.95305 5.58398ZM13.7513 13.75V10.1786H14.6441V14.6429H10.1798V13.75H13.7513Z" fill="#71717A"/>
<path d="M10.0506 9.41724L14.5149 13.8815L13.8827 14.5137L9.41846 10.0494L10.0506 9.41724Z" fill="#71717A"/>
<path d="M1.25223 13.7501V10.1787H0.359375V14.643H4.82366V13.7501H1.25223Z" fill="#71717A"/>
<path d="M4.95354 9.41528L0.489258 13.8796L1.1214 14.5117L5.58569 10.0474L4.95354 9.41528Z" fill="#71717A"/>
</svg>
