<svg width="18" height="19" viewBox="0 0 18 19" fill="none" xmlns="http://www.w3.org/2000/svg">
<path d="M16.7005 6.33204V4.87011C16.7005 3.47736 15.5671 2.34448 14.1749 2.34448H4.30304C2.90973 2.34448 1.77686 3.47792 1.77686 4.87011V8.12136C1.77686 8.40092 2.00354 8.62761 2.28311 8.62761C2.56267 8.62761 2.78936 8.40092 2.78936 8.12136V4.87011C2.78936 4.03592 3.46829 3.35754 4.30248 3.35754H14.1749C15.0091 3.35754 15.6875 4.03592 15.6875 4.87011V6.26454H13.9915C12.7169 6.26454 11.6802 7.3018 11.6802 8.57586V8.92292C11.6802 10.1975 12.7175 11.2342 13.9915 11.2342H15.6875V12.632C15.6875 13.4662 15.0091 14.1446 14.1749 14.1446H9.09554C8.81598 14.1446 8.58929 14.3713 8.58929 14.6509C8.58929 14.9304 8.81598 15.1571 9.09554 15.1571H14.1749C15.5677 15.1571 16.7005 14.0237 16.7005 12.6315V11.1656C17.0965 11.0182 17.3812 10.6397 17.3812 10.193V7.30348C17.3812 6.85798 17.0965 6.47942 16.7005 6.33204ZM12.6933 8.92292V8.57586C12.6933 7.8598 13.2755 7.27704 13.9921 7.27704L16.3687 7.30461V10.1942C16.3687 10.2088 16.3563 10.2217 16.3411 10.2217H13.9921C13.276 10.2212 12.6933 9.63898 12.6933 8.92292Z" fill="#71717A"/>
<path d="M4.12359 9.396C2.43553 9.396 0.618652 9.918 0.618652 11.0638V13.0258V13.5883V14.9878C0.618652 15.6555 1.25371 16.1786 2.40684 16.4627C2.92209 16.5887 3.51609 16.6556 4.12415 16.6556C4.73053 16.6556 5.32565 16.5892 5.84653 16.4627C6.99909 16.1792 7.63415 15.6549 7.63415 14.9878V13.5883V13.0258V11.0638C7.63303 9.918 5.8139 9.396 4.12359 9.396ZM6.62053 13.0196C6.5969 13.0792 6.3584 13.3318 5.60184 13.5146C4.73109 13.7329 3.51609 13.734 2.6459 13.5135C1.88034 13.3284 1.6469 13.0708 1.63115 13.0264V12.2743C1.8584 12.3772 2.11884 12.4656 2.41415 12.5353C2.93109 12.6619 3.52228 12.7288 4.12359 12.7288C4.72772 12.7288 5.32059 12.6619 5.83359 12.5364C6.13003 12.4661 6.39215 12.3772 6.61996 12.2737V13.0196H6.62053ZM4.12359 10.4091C5.67834 10.4091 6.53053 10.8726 6.61771 11.0632C6.58059 11.1341 6.33084 11.3777 5.59734 11.5515C4.72209 11.7652 3.53972 11.7675 2.65153 11.5504C1.89215 11.3709 1.65421 11.115 1.63171 11.0762V11.0717C1.69415 10.8872 2.5469 10.4091 4.12359 10.4091ZM6.62109 14.9788C6.60478 15.0328 6.37134 15.291 5.60521 15.4794C4.7204 15.6937 3.52115 15.6932 2.64703 15.48C1.87978 15.291 1.64634 15.0328 1.63059 14.9884V14.2402C1.85334 14.3404 2.11096 14.4264 2.40178 14.4967C3.42159 14.7532 4.82165 14.7544 5.84259 14.4979C6.13565 14.427 6.39553 14.3404 6.62053 14.2397L6.62109 14.9788Z" fill="#71717A"/>
<path d="M7.92781 4.97925H5.027C4.74744 4.97925 4.52075 5.20594 4.52075 5.4855C4.52075 5.76506 4.74744 5.99175 5.027 5.99175H7.92725C8.20681 5.99175 8.4335 5.76506 8.4335 5.4855C8.4335 5.20594 8.20738 4.97925 7.92781 4.97925Z" fill="#71717A"/>
</svg>
